<svg width="31" height="31" viewBox="0 0 31 31" fill="none" xmlns="http://www.w3.org/2000/svg">
<path d="M22.6042 12.9167C22.6042 10.0672 20.2869 7.75 17.4375 7.75H13.5625C11.4261 7.75 9.6875 9.48858 9.6875 11.625V21.9583C9.6875 22.6726 10.2649 23.25 10.9792 23.25C11.6935 23.25 12.2708 22.6726 12.2708 21.9583V18.0833H16.8123L19.2032 22.5667C19.437 23.002 19.8826 23.25 20.345 23.25C20.5491 23.25 20.7571 23.2009 20.9521 23.0989C21.5812 22.7617 21.8201 21.9803 21.4843 21.35L19.5106 17.6493C21.3306 16.8498 22.6042 15.0298 22.6042 12.9167ZM17.4375 15.5H12.2708V11.625C12.2708 10.912 12.8495 10.3333 13.5625 10.3333H17.4375C18.8622 10.3333 20.0208 11.492 20.0208 12.9167C20.0208 14.3414 18.8622 15.5 17.4375 15.5ZM15.5 0C6.95304 0 0 6.95175 0 15.5C0 24.0483 6.95304 31 15.5 31C24.047 31 31 24.047 31 15.5C31 6.95304 24.047 0 15.5 0ZM15.5 28.4167C8.37775 28.4167 2.58333 22.6222 2.58333 15.5C2.58333 8.37775 8.37775 2.58333 15.5 2.58333C22.6222 2.58333 28.4167 8.37775 28.4167 15.5C28.4167 22.6222 22.6222 28.4167 15.5 28.4167Z" fill="black"/>
</svg>
